<svg xmlns="http://www.w3.org/2000/svg" xmlns:xlink="http://www.w3.org/1999/xlink" xml:space="preserve" version="1.1" style="shape-rendering:geometricPrecision;text-rendering:geometricPrecision;image-rendering:optimizeQuality;" viewBox="0 0 1128.88 1411.1000000000001" x="0px" y="0px" fill-rule="evenodd" clip-rule="evenodd"><defs><style type="text/css">
   
    .fil0 {fill:black}
   
  </style></defs><g><g><g><path class="fil0" d="M296.62 431.11l67.22 0c36.94,0 66.83,-29.89 66.83,-66.83l0 -67.22c0,-36.94 -29.89,-66.83 -66.83,-66.83l-67.22 0.01c-36.94,0 -66.83,29.89 -66.83,66.83l0 67.22c0,36.93 29.94,66.82 66.83,66.82z"/><path class="fil0" d="M764.82 430.67l66.83 0c36.94,0 66.83,-29.89 66.83,-66.83l0 -66.78c0,-36.94 -29.89,-66.83 -66.83,-66.83l-66.83 0.01c-36.93,0 -66.82,29.89 -66.82,66.83l0 66.78c0.01,36.93 29.94,66.82 66.82,66.82z"/><path class="fil0" d="M531.16 430.89l66.78 0c36.94,0 66.83,-29.89 66.83,-66.83l0 -66.82c0,-36.94 -29.89,-66.83 -66.83,-66.83l-66.78 0.01c-36.93,0 -66.83,29.89 -66.83,66.83l0 66.83c0.02,36.87 29.95,66.81 66.83,66.81z"/><path class="fil0" d="M364.51 464.08l-67.24 0c-36.93,0 -66.82,29.89 -66.82,66.83l0 67.27c0,36.94 29.89,66.83 66.82,66.83l67.24 -0.01c36.94,0 66.83,-29.89 66.83,-66.83l0 -67.27c-0.02,-36.88 -29.91,-66.82 -66.83,-66.82z"/><path class="fil0" d="M832.27 464.31l-66.81 0c-36.94,0 -66.83,29.89 -66.83,66.83l0 66.78c0,36.93 29.89,66.82 66.83,66.82l66.81 -0.01c36.94,0 66.83,-29.89 66.83,-66.83l0 -66.78c0,-36.88 -29.89,-66.81 -66.83,-66.81z"/><path class="fil0" d="M598.61 464.31l-66.82 0c-36.93,0 -66.82,29.89 -66.82,66.83l0 66.78c0,36.93 29.89,66.82 66.82,66.82l66.82 -0.01c36.94,0 66.83,-29.89 66.83,-66.83l0 -66.78c0,-36.88 -29.89,-66.81 -66.83,-66.81z"/><path class="fil0" d="M364.51 697.79l-67.24 0c-36.93,0 -66.82,29.89 -66.82,66.83l0.01 67.21c0,36.94 29.89,66.83 66.83,66.83l67.22 0c36.94,0 66.83,-29.89 66.83,-66.83l0 -67.22c-0.02,-36.93 -29.91,-66.82 -66.83,-66.82z"/><path class="fil0" d="M832.27 698.01l-66.81 0c-36.94,0 -66.83,29.89 -66.83,66.83l0 66.83c0,36.93 29.89,66.82 66.83,66.82l66.81 -0.01c36.94,0 66.83,-29.89 66.83,-66.83l0 -66.83c0,-36.92 -29.89,-66.81 -66.83,-66.81z"/><path class="fil0" d="M598.61 698.01l-66.82 0c-36.93,0 -66.82,29.89 -66.82,66.83l0 66.83c0,36.93 29.89,66.82 66.82,66.82l66.82 -0.01c36.94,0 66.83,-29.89 66.83,-66.83l0 -66.83c0,-36.92 -29.89,-66.81 -66.83,-66.81z"/></g></g></g><text x="0" y="1143.88" fill="#000000" font-size="5px" font-weight="bold" font-family="'Helvetica Neue', Helvetica, Arial-Unicode, Arial, Sans-serif">Created by Ilham Fitrotul Hayat</text><text x="0" y="1148.88" fill="#000000" font-size="5px" font-weight="bold" font-family="'Helvetica Neue', Helvetica, Arial-Unicode, Arial, Sans-serif">from the Noun Project</text></svg>